<svg width="84" height="64" viewBox="0 0 84 64" fill="none" xmlns="http://www.w3.org/2000/svg">
<path d="M62.1574 2.83219C63.5183 2.5257 64.9419 2.66862 66.2147 3.23954C67.4876 3.81046 68.541 4.7786 69.2171 5.99881C72.0186 10.9843 74.7621 16.0036 77.3804 21.0888C77.7856 21.8444 78.0339 22.674 78.1106 23.528C78.1872 24.3819 78.0906 25.2425 77.8265 26.0581C77.5624 26.8738 77.1362 27.6276 76.5736 28.2746C76.011 28.9215 75.3235 29.448 74.5523 29.8227C69.6422 32.4618 64.6996 35.0416 59.7245 37.5623C58.8958 37.912 58.1752 38.4761 57.6368 39.1966C57.0984 39.9171 56.7616 40.768 56.661 41.6618C56.3574 44.0517 56.0826 46.4462 55.7526 48.8329C55.6404 49.7232 55.4484 50.6016 55.1791 51.4575C54.6443 53.0821 53.5048 53.7854 51.8845 53.2158C49.7529 52.4668 47.7148 51.452 45.6399 50.5442C45.2509 50.3745 44.8697 50.1815 44.4995 49.9735C43.1936 49.1606 41.678 48.7483 40.1403 48.7877C38.6025 48.8271 37.11 49.3165 35.8474 50.1952C31.6563 52.7444 27.2335 54.9173 22.8733 57.1834C19.0987 59.146 15.528 57.9855 13.5399 54.2557C11.0726 49.6274 8.60147 45 6.12644 40.3735C4.12002 36.6222 5.26224 32.8926 9.0196 30.8951C25.9575 21.8866 42.8953 12.8782 59.8332 3.86976C60.5818 3.47316 61.3811 3.17568 62.1574 2.83219Z" fill="#FF014E"/>
<path d="M31.7321 31.4779C31.1982 31.3144 30.6357 31.266 30.0817 31.3359C29.5278 31.4057 28.9949 31.5922 28.5183 31.883C28.0417 32.1739 27.6321 32.5625 27.3166 33.0232C27.0012 33.4839 26.787 34.0062 26.6881 34.5557C26.1959 34.3428 25.6655 34.2322 25.1292 34.2309C24.593 34.2295 24.062 34.3374 23.5688 34.5479C23.0755 34.7584 22.6303 35.0672 22.2603 35.4554C21.8902 35.8435 21.6031 36.303 21.4164 36.8057C21.2297 37.3085 21.1473 37.844 21.1743 38.3796C21.2012 38.9152 21.337 39.4397 21.5732 39.9212C21.8095 40.4026 22.1413 40.8309 22.5485 41.1799C22.9556 41.529 23.4296 41.7914 23.9415 41.9514L31.6979 44.3203C31.7265 44.3291 31.7565 44.3322 31.7863 44.3294C31.8161 44.3265 31.845 44.3178 31.8714 44.3038C31.8978 44.2897 31.9212 44.2706 31.9402 44.2475C31.9592 44.2244 31.9734 44.1977 31.9821 44.1691L34.351 36.4127C34.6568 35.411 34.5528 34.3289 34.0619 33.4038C33.5709 32.4787 32.7331 31.786 31.7321 31.4779Z" fill="white"/>
<path d="M40.3906 24.9032C40.9236 24.6432 41.4698 24.4818 42.029 24.4191C42.5868 24.3534 43.1367 24.4113 43.6788 24.5929C44.2238 24.7731 44.7422 25.1026 45.2339 25.5816C45.7272 26.0561 46.1758 26.7036 46.5798 27.524C46.9489 28.2729 47.1841 28.9931 47.2856 29.6846C47.3885 30.3717 47.3668 31.0109 47.2202 31.6022C47.0767 32.192 46.8137 32.7185 46.4314 33.1815C46.0505 33.6401 45.5594 34.0162 44.9579 34.3096C44.2819 34.6394 43.6247 34.7997 42.9861 34.7906C42.3475 34.7814 41.7696 34.632 41.2523 34.3425C40.735 34.0529 40.3203 33.6525 40.0082 33.1412L42.4559 31.947C42.6505 32.1949 42.8796 32.332 43.1431 32.3582C43.4052 32.3815 43.6672 32.3293 43.9293 32.2014C44.4533 31.9457 44.7256 31.5327 44.7459 30.9624C44.7678 30.3877 44.595 29.72 44.2275 28.9592L44.1739 28.9853C44.1944 29.3219 44.1356 29.6473 43.9977 29.9616C43.8598 30.2759 43.6607 30.5629 43.4003 30.8226C43.14 31.0824 42.8356 31.2972 42.4872 31.4672C41.9363 31.736 41.3936 31.8478 40.8592 31.8026C40.3232 31.7544 39.8338 31.5711 39.3909 31.2526C38.9465 30.9312 38.5877 30.4943 38.3145 29.9419C37.9948 29.2942 37.8707 28.6506 37.9421 28.0112C38.0135 27.3717 38.2586 26.7821 38.6772 26.2424C39.0959 25.7026 39.667 25.2563 40.3906 24.9032ZM41.3238 26.7705C41.0766 26.8911 40.8839 27.0551 40.7455 27.2627C40.6102 27.4689 40.5346 27.6956 40.5189 27.9429C40.5061 28.1887 40.5608 28.433 40.6829 28.6757C40.805 28.9185 40.9669 29.1105 41.1685 29.2517C41.3731 29.3915 41.5968 29.4722 41.8396 29.4938C42.0854 29.514 42.3319 29.4638 42.579 29.3432C42.7606 29.2546 42.9136 29.1412 43.038 29.0032C43.1608 28.8621 43.2505 28.7059 43.307 28.5346C43.365 28.3588 43.3875 28.1782 43.3745 27.9929C43.363 27.8031 43.3115 27.6181 43.2199 27.4379C43.0978 27.1952 42.9344 27.004 42.7298 26.8642C42.5252 26.7244 42.3 26.6444 42.0542 26.6242C41.8085 26.604 41.565 26.6528 41.3238 26.7705ZM49.0011 20.7022C49.5341 20.4422 50.0802 20.2808 50.6395 20.2181C51.1973 20.1524 51.7472 20.2103 52.2893 20.3919C52.8343 20.5721 53.3527 20.9016 53.8444 21.3806C54.3377 21.8551 54.7863 22.5026 55.1902 23.323C55.5593 24.0719 55.7946 24.7921 55.896 25.4836C55.999 26.1707 55.9772 26.8099 55.8307 27.4012C55.6871 27.991 55.4242 28.5175 55.0418 28.9805C54.661 29.4391 54.1698 29.8152 53.5683 30.1086C52.8924 30.4384 52.2351 30.5987 51.5966 30.5896C50.958 30.5804 50.3801 30.431 49.8628 30.1415C49.3455 29.8519 48.9308 29.4515 48.6186 28.9402L51.0663 27.746C51.261 27.9939 51.4901 28.131 51.7536 28.1572C52.0156 28.1805 52.2777 28.1283 52.5397 28.0004C53.0638 27.7447 53.336 27.3317 53.3564 26.7614C53.3783 26.1867 53.2055 25.519 52.838 24.7582L52.7844 24.7843C52.8048 25.1209 52.7461 25.4463 52.6082 25.7606C52.4703 26.0749 52.2712 26.3619 52.0108 26.6216C51.7504 26.8814 51.4461 27.0962 51.0977 27.2662C50.5468 27.535 50.0041 27.6468 49.4696 27.6016C48.9337 27.5534 48.4443 27.3701 48.0013 27.0516C47.557 26.7302 47.1982 26.2933 46.925 25.7409C46.6053 25.0932 46.4811 24.4496 46.5526 23.8102C46.624 23.1707 46.869 22.5811 47.2877 22.0414C47.7064 21.5016 48.2775 21.0552 49.0011 20.7022ZM49.9342 22.5695C49.6871 22.69 49.4943 22.8541 49.356 23.0617C49.2206 23.2679 49.1451 23.4946 49.1293 23.7419C49.1166 23.9877 49.1712 24.232 49.2933 24.4747C49.4155 24.7175 49.5773 24.9094 49.779 25.0507C49.9836 25.1905 50.2073 25.2712 50.4501 25.2928C50.6959 25.313 50.9423 25.2628 51.1895 25.1422C51.3711 25.0536 51.5241 24.9402 51.6484 24.8022C51.7713 24.6611 51.861 24.5049 51.9175 24.3336C51.9755 24.1578 51.998 23.9772 51.985 23.7919C51.9735 23.6021 51.922 23.4171 51.8304 23.2369C51.7083 22.9942 51.5449 22.803 51.3403 22.6632C51.1357 22.5234 50.9105 22.4434 50.6647 22.4232C50.4189 22.403 50.1754 22.4518 49.9342 22.5695ZM57.6116 16.5012C58.1446 16.2412 58.6907 16.0798 59.25 16.0171C59.8077 15.9514 60.3577 16.0093 60.8997 16.1909C61.4447 16.3711 61.9631 16.7006 62.4549 17.1796C62.9481 17.6541 63.3967 18.3016 63.8007 19.122C64.1698 19.8709 64.4051 20.5911 64.5065 21.2826C64.6095 21.9697 64.5877 22.6089 64.4412 23.2002C64.2976 23.79 64.0347 24.3165 63.6523 24.7795C63.2715 25.2381 62.7803 25.6142 62.1788 25.9076C61.5028 26.2374 60.8456 26.3977 60.207 26.3886C59.5685 26.3794 58.9905 26.23 58.4732 25.9405C57.9559 25.6509 57.5412 25.2505 57.2291 24.7392L59.6768 23.545C59.8715 23.7929 60.1006 23.93 60.3641 23.9562C60.6261 23.9795 60.8882 23.9273 61.1502 23.7994C61.6743 23.5437 61.9465 23.1307 61.9669 22.5604C61.9888 21.9857 61.816 21.3179 61.4485 20.5572L61.3949 20.5833C61.4153 20.9199 61.3566 21.2453 61.2187 21.5596C61.0808 21.8739 60.8816 22.1609 60.6213 22.4206C60.3609 22.6804 60.0565 22.8952 59.7081 23.0652C59.1573 23.334 58.6146 23.4458 58.0801 23.4006C57.5441 23.3524 57.0547 23.1691 56.6118 22.8506C56.1674 22.5292 55.8086 22.0923 55.5354 21.5399C55.2157 20.8922 55.0916 20.2486 55.163 19.6092C55.2345 18.9697 55.4795 18.3801 55.8982 17.8404C56.3168 17.3006 56.888 16.8542 57.6116 16.5012ZM58.5447 18.3685C58.2976 18.489 58.1048 18.6531 57.9665 18.8607C57.8311 19.0669 57.7555 19.2936 57.7398 19.5409C57.727 19.7867 57.7817 20.031 57.9038 20.2737C58.0259 20.5165 58.1878 20.7084 58.3894 20.8497C58.594 20.9895 58.8177 21.0702 59.0605 21.0918C59.3063 21.112 59.5528 21.0618 59.7999 20.9412C59.9816 20.8526 60.1346 20.7392 60.2589 20.6012C60.3818 20.4601 60.4715 20.3039 60.528 20.1326C60.586 19.9568 60.6085 19.7762 60.5955 19.5909C60.584 19.4011 60.5324 19.2161 60.4408 19.0359C60.3187 18.7932 60.1554 18.602 59.9508 18.4622C59.7461 18.3224 59.5209 18.2424 59.2752 18.2222C59.0294 18.202 58.7859 18.2508 58.5447 18.3685Z" fill="white"/>
</svg>
