<svg width="26" height="26" viewBox="0 0 26 26" fill="none" xmlns="http://www.w3.org/2000/svg">
<path d="M21.06 11.7271C21.8394 11.7171 22.6187 11.7051 23.398 11.6911C24.298 11.6791 25.145 11.6121 25.198 12.9541C25.255 14.3271 24.514 14.5961 23.398 14.6141C21.936 14.6361 20.475 14.6771 19.017 14.7461C18.462 14.7721 17.667 14.5541 17.43 15.1141C17.104 15.8851 17.991 16.2231 18.43 16.6671C19.523 17.7761 20.643 18.8671 21.823 19.8801C22.781 20.7041 22.414 21.2951 21.744 22.0501C21.044 22.8371 20.497 22.7221 19.819 22.0621C18.4857 20.7748 17.134 19.5108 15.764 18.2701C14.995 17.5781 14.505 17.8791 14.505 18.8411C14.505 20.5941 14.58 22.3411 14.647 24.0961C14.685 25.0961 14.455 25.7961 13.258 25.8591C12.061 25.9221 11.746 25.3231 11.723 24.2761C11.685 22.5251 11.591 20.7761 11.498 19.0231C11.48 18.6591 11.498 18.2231 11.061 18.0471C10.593 17.8551 10.34 18.2581 10.091 18.5151C8.80503 19.8431 7.53003 21.1851 6.28503 22.5561C5.58503 23.3331 5.01403 23.1821 4.34803 22.5011C3.73103 21.8711 3.35803 21.3291 4.11903 20.5391C5.47103 19.1391 6.78902 17.7031 8.10302 16.2631C8.28902 16.0631 8.52002 15.7471 8.48402 15.5241C8.40702 15.0541 7.95202 15.0561 7.56502 15.0621C5.71702 15.0981 3.86503 15.1251 2.01403 15.1831C1.11403 15.2091 0.548021 14.9931 0.502021 13.9201C0.456021 12.8471 0.757024 12.2721 1.92702 12.2641C3.77702 12.2541 5.62702 12.1771 7.47802 12.1141C7.85002 12.1021 8.32803 12.1221 8.37803 11.6261C8.39603 11.4051 8.14503 11.1161 7.95103 10.9261C6.62103 9.63807 5.29502 8.3451 3.92602 7.1021C3.17102 6.4181 2.90202 5.8711 3.71302 4.9641C4.63202 3.9361 5.25002 4.20108 6.06702 5.03908C7.29202 6.29008 8.60003 7.4621 9.89503 8.6451C10.154 8.8821 10.421 9.32309 10.871 9.04509C11.25 8.81209 11.15 8.37308 11.142 8.00008C11.099 6.24508 11.087 4.4921 10.996 2.7401C10.939 1.6751 11.283 1.1101 12.417 1.0071C13.658 0.896095 13.899 1.58409 13.925 2.58409C13.9677 4.43476 14.027 6.28441 14.103 8.13307C14.0885 8.4116 14.1764 8.68584 14.35 8.9041C14.75 9.2341 15.067 8.86009 15.326 8.58809C16.605 7.25009 17.889 5.91809 19.126 4.54509C19.826 3.77409 20.41 3.49808 21.286 4.36308C22.086 5.14408 22.163 5.71108 21.343 6.52708C19.96 7.89808 18.655 9.34709 17.353 10.7951C16.78 11.4311 16.995 11.8381 17.845 11.8401C18.916 11.8461 19.987 11.8141 21.06 11.7961C21.06 11.7781 21.06 11.7541 21.06 11.7271Z" fill="#FFCC00"/>
</svg>
