<svg width="38" height="38" viewBox="0 0 38 38" fill="none" xmlns="http://www.w3.org/2000/svg">
<path d="M19 38C29.4934 38 38 29.4934 38 19C38 8.50659 29.4934 0 19 0C8.50659 0 0 8.50659 0 19C0 29.4934 8.50659 38 19 38Z" fill="#474DFF"/>
<path d="M14.9673 24C14.8401 23.6956 14.7322 23.383 14.6436 23.062C14.5606 22.741 14.5191 22.3869 14.5191 21.9995C14.5191 21.5347 14.5855 21.1224 14.7183 20.7627C14.8511 20.403 15.031 20.0848 15.2579 19.8081C15.4903 19.5314 15.7615 19.2935 16.0714 19.0942C16.3868 18.8895 16.7243 18.7124 17.084 18.563C17.4493 18.4136 17.8283 18.2863 18.2213 18.1812C18.6197 18.0705 19.0154 17.9709 19.4083 17.8823C20.0613 17.7384 20.6395 17.6056 21.1431 17.4839C21.6467 17.3621 22.07 17.2183 22.4131 17.0522C22.7562 16.8862 23.0163 16.687 23.1934 16.4546C23.3705 16.2166 23.459 15.9123 23.459 15.5415C23.459 15.2039 23.3954 14.9106 23.2681 14.6616C23.1408 14.4126 22.9638 14.2078 22.7369 14.0474C22.5155 13.8813 22.2554 13.7596 21.9566 13.6821C21.6578 13.5991 21.334 13.5576 20.9854 13.5576C20.5759 13.5576 20.2162 13.6047 19.9063 13.6987C19.6019 13.7928 19.3446 13.9478 19.1343 14.1636C18.9296 14.3739 18.7746 14.6506 18.6695 14.9937C18.5644 15.3312 18.5118 15.749 18.5118 16.2471H14.8179C14.7958 16.1143 14.7792 15.9704 14.7681 15.8154C14.7571 15.6605 14.7515 15.5221 14.7515 15.4004C14.7515 14.9189 14.8318 14.4956 14.9922 14.1304C15.1583 13.7596 15.3852 13.4414 15.6729 13.1758C15.9662 12.9046 16.3121 12.6805 16.7105 12.5034C17.1145 12.3263 17.5572 12.1852 18.0386 12.0801C18.5201 11.9694 19.032 11.8919 19.5743 11.8477C20.1166 11.8034 20.6727 11.7812 21.2427 11.7812C22.3882 11.7812 23.3788 11.867 24.2144 12.0386C25.0556 12.2101 25.7473 12.4591 26.2896 12.7856C26.8319 13.1121 27.2331 13.5133 27.4932 13.9893C27.7589 14.4596 27.8917 14.9992 27.8917 15.6079C27.8917 16.0229 27.8142 16.3937 27.6592 16.7202C27.5098 17.0467 27.3051 17.34 27.045 17.6001C26.7849 17.8602 26.4778 18.0898 26.1236 18.2891C25.7694 18.4883 25.3876 18.6654 24.9781 18.8203C24.5741 18.9753 24.1535 19.1108 23.7164 19.2271C23.2792 19.3377 22.8476 19.4373 22.4214 19.5259C21.8902 19.6366 21.3977 19.7528 20.9439 19.8745C20.4901 19.9963 20.0972 20.1318 19.7652 20.2812C19.4387 20.4307 19.1814 20.6022 18.9932 20.7959C18.8051 20.984 18.711 21.2054 18.711 21.46C18.711 21.5153 18.7138 21.5734 18.7193 21.6343C18.7248 21.6951 18.7331 21.7533 18.7442 21.8086H24.2476L27.6094 18.8618V24H14.9673Z" fill="white"/>
</svg>
