<svg width="85" height="55" viewBox="0 0 85 55" fill="none" xmlns="http://www.w3.org/2000/svg">
<path opacity="0.1" d="M27.5 55C42.6878 55 55 42.6878 55 27.5C55 12.3122 42.6878 0 27.5 0C12.3122 0 0 12.3122 0 27.5C0 42.6878 12.3122 55 27.5 55Z" fill="#FF014E"/>
<path d="M74.5 43C80.299 43 85 38.299 85 32.5C85 26.701 80.299 22 74.5 22C68.701 22 64 26.701 64 32.5C64 38.299 68.701 43 74.5 43Z" fill="#FED0E2"/>
<path d="M35.807 34.19C34.8218 34.19 33.8771 33.7987 33.1804 33.102C32.4838 32.4054 32.0925 31.4606 32.0925 30.4755C32.0925 29.4904 32.4838 28.5456 33.1804 27.849C33.8771 27.1523 34.8218 26.761 35.807 26.761H40.14V20.571C40.14 20.4068 40.0748 20.2494 39.9587 20.1333C39.8426 20.0172 39.6852 19.952 39.521 19.952H16.621C16.1285 19.952 15.6562 19.7564 15.3079 19.4081C14.9596 19.0598 14.764 18.5875 14.764 18.095C14.764 17.6025 14.9596 17.1302 15.3079 16.7819C15.6562 16.4336 16.1285 16.238 16.621 16.238H33.331V18.714H34.569V15.614C34.5677 15.4507 34.5019 15.2945 34.3859 15.1795C34.27 15.0645 34.1133 15 33.95 15H16.621C15.7988 15 15.0103 15.3266 14.429 15.908C13.8476 16.4893 13.521 17.2778 13.521 18.1V36.667C13.5223 37.8158 13.9793 38.9171 14.7916 39.7294C15.6039 40.5417 16.7052 40.9987 17.854 41H39.521C39.6852 41 39.8426 40.9348 39.9587 40.8187C40.0748 40.7026 40.14 40.5452 40.14 40.381V34.19H35.807Z" fill="#FF014E"/>
<path d="M41.379 28H35.807C35.1503 28 34.5205 28.2609 34.0562 28.7252C33.5919 29.1895 33.331 29.8193 33.331 30.476C33.331 31.1327 33.5919 31.7625 34.0562 32.2268C34.5205 32.6911 35.1503 32.952 35.807 32.952H41.378C41.5422 32.952 41.6996 32.8868 41.8157 32.7707C41.9318 32.6546 41.997 32.4972 41.997 32.333V28.619C41.997 28.455 41.9319 28.2977 41.816 28.1817C41.7002 28.0656 41.543 28.0003 41.379 28V28Z" fill="#FF014E"/>
</svg>
