<svg width="49" height="57" viewBox="0 0 49 57" fill="none" xmlns="http://www.w3.org/2000/svg">
<path d="M14.9831 23.4982C15.5876 23.929 16.0652 24.5143 16.3662 25.1928C16.7334 25.8667 17.039 26.5835 17.4508 27.2301C18.2791 28.5315 19.2538 28.5412 20.1721 27.2827C20.4419 26.8841 20.6909 26.4716 20.9178 26.0471C21.2412 25.4549 21.6338 24.9032 22.0873 24.4036C22.3511 24.0708 22.6894 23.8047 23.0749 23.6267C23.4605 23.4486 23.8824 23.3636 24.3068 23.3786C24.7312 23.3935 25.1462 23.5079 25.5182 23.7126C25.8903 23.9173 26.2091 24.2065 26.4489 24.557C26.8693 25.1431 27.2343 25.767 27.5391 26.4207C28.015 27.2844 28.2652 28.4831 29.467 28.5534C30.6962 28.6245 31.0379 27.4466 31.545 26.6043C31.9219 25.9321 32.3696 25.3022 32.8804 24.7253C33.1372 24.4185 33.459 24.1727 33.8227 24.0059C34.1863 23.8391 34.5825 23.7553 34.9825 23.7608C35.3826 23.7663 35.7763 23.8608 36.1352 24.0375C36.4942 24.2143 36.8092 24.4687 37.0574 24.7824C37.5637 25.426 37.9845 26.1324 38.3094 26.884C38.5839 27.7127 39.1306 28.4243 39.8607 28.9031C40.2406 29.089 40.2253 29.4335 40.2132 29.7706C40.1954 30.2534 39.9946 30.4931 39.478 30.2999C38.7432 30.043 38.1236 29.5334 37.7297 28.8621C37.3895 28.2812 37.1033 27.6691 36.7771 27.0801C36.5643 26.6492 36.3156 26.2371 36.0334 25.8482C35.9285 25.6691 35.7809 25.5188 35.6037 25.4107C35.4266 25.3026 35.2254 25.24 35.0182 25.2285C34.811 25.217 34.6042 25.2571 34.4162 25.345C34.2282 25.4329 34.0649 25.566 33.9409 25.7324C33.5367 26.1465 33.1927 26.6152 32.9187 27.1249C32.6238 27.6769 32.2951 28.2102 31.9345 28.7217C31.683 29.1402 31.3259 29.4851 30.8989 29.7219C30.472 29.9587 29.9902 30.0789 29.5021 30.0705C29.014 30.0622 28.5366 29.9255 28.118 29.6742C27.6994 29.423 27.3543 29.066 27.1174 28.6391C26.6801 28.0125 26.3812 27.2903 26.0052 26.6194C25.5868 25.8721 25.2928 24.9195 24.2631 24.8769C23.2334 24.8344 22.836 25.7307 22.3676 26.4499C22 27.0148 21.709 27.6308 21.3164 28.1767C19.8351 30.2324 17.6112 30.1944 16.2482 28.0691C15.7552 27.303 15.4094 26.444 14.9482 25.6547C14.0452 24.1068 12.9905 24.0556 11.9735 25.5192C11.5351 26.1505 11.1922 26.8463 10.7804 27.4977C10.3759 28.2175 9.7456 28.7841 8.98695 29.11C8.68874 29.2265 8.2798 29.4488 8.06588 29.1313C7.81917 28.7706 7.80826 28.1015 8.15838 27.9411C9.63454 27.2703 9.98533 25.7627 10.8195 24.622C12.0213 22.9764 13.472 22.5496 14.9831 23.4982Z" fill="#FFCC00"/>
<path d="M2.49314 40.2795C2.58465 40.203 2.72625 40.0758 2.87747 39.9598C3.87112 39.2068 4.88599 38.481 5.85264 37.6927C6.35009 37.2871 6.66596 37.354 7.02401 37.8378C7.78875 38.8833 8.56109 39.9215 9.36055 40.9408C9.69356 41.364 9.71499 41.6489 9.23928 41.9909C8.18892 42.7481 7.16506 43.5415 6.14924 44.343C5.69978 44.6955 5.36817 44.7638 4.98373 44.2197C4.23628 43.1623 3.42377 42.1516 2.64956 41.1146C2.47913 40.8938 2.24819 40.6658 2.49314 40.2795Z" fill="#FFCC00"/>
<path d="M32.1181 13.7198C31.7301 13.4914 31.391 13.1888 31.1199 12.8294C30.8489 12.4699 30.6514 12.0606 30.5385 11.6248C30.4257 11.1889 30.3998 10.7352 30.4623 10.2893C30.5249 9.84352 30.6746 9.41436 30.903 9.02641C31.1314 8.63845 31.4339 8.29928 31.7934 8.02825C32.1529 7.75723 32.5622 7.55966 32.998 7.44682C33.4338 7.33399 33.8876 7.3081 34.3334 7.37063C34.7792 7.43317 35.2084 7.5829 35.5963 7.81129C35.9988 8.0324 36.3511 8.33438 36.6312 8.69823C36.9113 9.06208 37.113 9.47994 37.2239 9.92554C37.3347 10.3711 37.3521 10.8348 37.275 11.2875C37.198 11.7402 37.0281 12.172 36.7761 12.5558C36.5484 12.9399 36.2468 13.275 35.8887 13.5417C35.5306 13.8085 35.1232 14.0015 34.69 14.1098C34.2568 14.218 33.8064 14.2393 33.365 14.1724C32.9235 14.1054 32.4997 13.9516 32.1181 13.7198ZM32.1208 9.80916C31.9951 10.0407 31.9167 10.2949 31.8902 10.5569C31.8637 10.819 31.8895 11.0837 31.9662 11.3357C32.043 11.5877 32.169 11.8219 32.3371 12.0248C32.5051 12.2276 32.7118 12.395 32.9452 12.5172C33.3939 12.7553 33.9177 12.8096 34.4057 12.6686C34.8937 12.5276 35.3078 12.2023 35.5604 11.7616C35.7 11.5379 35.7921 11.2879 35.8312 11.0271C35.8703 10.7664 35.8554 10.5004 35.7876 10.2456C35.7197 9.99078 35.6003 9.75263 35.4367 9.54586C35.2731 9.33908 35.0688 9.16807 34.8365 9.04343C34.6091 8.91017 34.3573 8.82419 34.0959 8.79063C33.8346 8.75707 33.5692 8.77661 33.3156 8.84812C33.062 8.91963 32.8254 9.04161 32.6201 9.20675C32.4148 9.37189 32.245 9.57679 32.1208 9.80916Z" fill="#FFCC00"/>
</svg>
