<svg width="20" height="19" viewBox="0 0 20 19" fill="none" xmlns="http://www.w3.org/2000/svg">
<path d="M0.247989 7.17774C0.311135 6.95803 0.438772 6.76232 0.614382 6.61595C0.789992 6.46958 1.00549 6.37928 1.23299 6.35674L6.73299 5.94574L8.78899 0.934745C8.86046 0.733717 8.99496 0.561156 9.17245 0.442767C9.34994 0.324378 9.56093 0.266496 9.77399 0.277745C10.0064 0.276286 10.2335 0.346441 10.4246 0.478666C10.6157 0.610891 10.7615 0.798769 10.842 1.01674L12.895 6.02574L18.395 6.43674C18.622 6.41386 18.8492 6.47715 19.0317 6.61405C19.2142 6.75095 19.3385 6.95144 19.38 7.17574C19.454 7.39044 19.4623 7.62233 19.4039 7.84178C19.3455 8.06123 19.223 8.25828 19.052 8.40774L14.866 11.9387L16.18 17.1947C16.2396 17.4178 16.2325 17.6534 16.1594 17.8724C16.0864 18.0914 15.9506 18.2842 15.769 18.4267C15.5877 18.5794 15.3621 18.6698 15.1255 18.6846C14.8889 18.6993 14.6539 18.6377 14.455 18.5087L9.77399 15.6337L5.09299 18.5077C4.89367 18.6355 4.65885 18.6964 4.42258 18.6816C4.18631 18.6669 3.96088 18.5773 3.77899 18.4257C3.58248 18.2962 3.43503 18.1046 3.36017 17.8815C3.28531 17.6583 3.28736 17.4166 3.36599 17.1947L4.67999 11.9387L0.493989 8.40774C0.334449 8.25098 0.225694 8.0499 0.181829 7.83058C0.137964 7.61125 0.161014 7.38381 0.247989 7.17774Z" fill="#FFC432"/>
</svg>
