<svg width="38" height="38" viewBox="0 0 38 38" fill="none" xmlns="http://www.w3.org/2000/svg">
<path d="M19 38C29.4934 38 38 29.4934 38 19C38 8.50659 29.4934 0 19 0C8.50659 0 0 8.50659 0 19C0 29.4934 8.50659 38 19 38Z" fill="#FF014E"/>
<path d="M14.2756 20.8042C14.2756 20.6714 14.2784 20.5275 14.2839 20.3726C14.295 20.2176 14.3144 20.0654 14.342 19.916H18.2932C18.2932 20.8291 18.5616 21.5125 19.0984 21.9663C19.6352 22.4146 20.4182 22.6387 21.4475 22.6387C21.8238 22.6387 22.1697 22.6055 22.4851 22.5391C22.8005 22.4671 23.0717 22.3564 23.2986 22.207C23.531 22.0576 23.7109 21.8639 23.8381 21.626C23.9654 21.3825 24.0291 21.0864 24.0291 20.7378C24.0291 20.3117 23.9267 19.9714 23.7219 19.7168C23.5172 19.4567 23.2322 19.2575 22.8669 19.1191C22.5017 18.9808 22.0645 18.8895 21.5554 18.8452C21.0518 18.8009 20.4957 18.7788 19.887 18.7788L20.1111 17.4507C20.5759 17.4507 21.002 17.4202 21.3894 17.3594C21.7823 17.293 22.1171 17.1851 22.3938 17.0356C22.6705 16.8862 22.8863 16.6898 23.0413 16.4463C23.1962 16.2028 23.2737 15.9012 23.2737 15.5415C23.2737 14.8553 23.0745 14.3407 22.676 13.9976C22.2831 13.6489 21.7436 13.4746 21.0574 13.4746C20.3214 13.4746 19.7597 13.6877 19.3723 14.1138C18.9905 14.5399 18.7996 15.2039 18.7996 16.106H14.865C14.8373 16.0506 14.8152 15.951 14.7986 15.8071C14.7875 15.6577 14.782 15.5221 14.782 15.4004C14.782 14.9355 14.8761 14.5233 15.0642 14.1636C15.2524 13.7983 15.5042 13.4829 15.8196 13.2173C16.135 12.9461 16.503 12.7192 16.9236 12.5366C17.3442 12.354 17.7869 12.2074 18.2517 12.0967C18.7221 11.986 19.198 11.9058 19.6794 11.856C20.1609 11.8062 20.6257 11.7812 21.074 11.7812C22.2361 11.7812 23.2488 11.8643 24.1121 12.0303C24.9753 12.1908 25.692 12.4287 26.262 12.7441C26.8319 13.054 27.2553 13.4386 27.532 13.8979C27.8142 14.3517 27.9553 14.8747 27.9553 15.4668C27.9553 15.749 27.9028 16.0036 27.7976 16.2305C27.6925 16.4518 27.5486 16.651 27.366 16.8281C27.1833 16.9997 26.9703 17.1519 26.7268 17.2847C26.4889 17.4119 26.2343 17.5199 25.9631 17.6084C25.692 17.6969 25.4125 17.7689 25.1248 17.8242C24.837 17.8796 24.5603 17.9183 24.2947 17.9404C24.588 17.9404 24.9006 17.9543 25.2327 17.9819C25.5647 18.0096 25.894 18.0594 26.2205 18.1313C26.547 18.1978 26.8596 18.2946 27.1584 18.4219C27.4573 18.5492 27.7201 18.7124 27.947 18.9116C28.1794 19.1108 28.3621 19.3543 28.4949 19.6421C28.6332 19.9243 28.7024 20.2563 28.7024 20.6382C28.7024 21.2137 28.5225 21.7311 28.1628 22.1904C27.8087 22.6442 27.2996 23.0288 26.6355 23.3442C25.9714 23.6597 25.169 23.9004 24.2283 24.0664C23.2875 24.238 22.2361 24.3237 21.074 24.3237C20.5261 24.3237 19.9783 24.2988 19.4304 24.249C18.8826 24.2048 18.3569 24.1273 17.8533 24.0166C17.3497 23.9115 16.8793 23.7703 16.4421 23.5933C16.005 23.4162 15.6259 23.1976 15.3049 22.9375C14.984 22.6774 14.7322 22.373 14.5496 22.0244C14.3669 21.6702 14.2756 21.2635 14.2756 20.8042Z" fill="white"/>
</svg>
