<svg width="125" height="66" viewBox="0 0 125 66" fill="none" xmlns="http://www.w3.org/2000/svg">
<path opacity="0.21" d="M25 3H10C4.47715 3 0 7.47715 0 13V53C0 58.5228 4.47715 63 10 63H25C30.5228 63 35 58.5228 35 53V13C35 7.47715 30.5228 3 25 3Z" fill="#FFB300"/>
<path d="M72 0H53C47.4772 0 43 4.47715 43 10V56C43 61.5228 47.4772 66 53 66H72C77.5228 66 82 61.5228 82 56V10C82 4.47715 77.5228 0 72 0Z" fill="#FFB400"/>
<path opacity="0.21" d="M115 3H100C94.4772 3 90 7.47715 90 13V53C90 58.5228 94.4772 63 100 63H115C120.523 63 125 58.5228 125 53V13C125 7.47715 120.523 3 115 3Z" fill="#FFB300"/>
<path d="M63.001 23.8088C61.3808 23.8088 59.7969 24.2893 58.4498 25.1894C57.1026 26.0896 56.0526 27.369 55.4326 28.8659C54.8125 30.3628 54.6503 32.0099 54.9664 33.599C55.2825 35.1881 56.0627 36.6478 57.2084 37.7935C58.3541 38.9391 59.8137 39.7193 61.4028 40.0354C62.9919 40.3515 64.6391 40.1893 66.1359 39.5693C67.6328 38.9492 68.9123 37.8992 69.8124 36.5521C70.7125 35.2049 71.193 33.6211 71.193 32.0008C71.1909 29.8288 70.3271 27.7464 68.7913 26.2106C67.2554 24.6747 65.173 23.811 63.001 23.8088ZM63.001 38.9788C61.6209 38.9788 60.2718 38.5696 59.1242 37.8028C57.9767 37.0361 57.0823 35.9463 56.5542 34.6712C56.026 33.3961 55.8878 31.9931 56.1571 30.6395C56.4263 29.2859 57.0909 28.0425 58.0668 27.0666C59.0427 26.0908 60.2861 25.4262 61.6397 25.1569C62.9933 24.8877 64.3963 25.0259 65.6714 25.554C66.9464 26.0822 68.0362 26.9765 68.803 28.1241C69.5697 29.2716 69.979 30.6207 69.979 32.0008C69.9787 33.8514 69.2435 35.6262 67.9349 36.9347C66.6263 38.2433 64.8516 38.9786 63.001 38.9788Z" fill="white"/>
<path d="M65.154 29.8458L62.154 32.8458L60.877 31.5758C60.7644 31.4632 60.6117 31.4 60.4525 31.4C60.2933 31.4 60.1406 31.4632 60.028 31.5758C59.9154 31.6884 59.8522 31.8411 59.8522 32.0003C59.8522 32.1595 59.9154 32.3122 60.028 32.4248L61.756 34.1558C61.8108 34.2132 61.8767 34.2589 61.9497 34.2901C62.0226 34.3213 62.1011 34.3374 62.1805 34.3374C62.2599 34.3374 62.3384 34.3213 62.4114 34.2901C62.4843 34.2589 62.5502 34.2132 62.605 34.1558L66.033 30.7278C66.0904 30.673 66.1361 30.6071 66.1673 30.5342C66.1985 30.4612 66.2146 30.3827 66.2146 30.3033C66.2146 30.224 66.1985 30.1454 66.1673 30.0725C66.1361 29.9995 66.0904 29.9336 66.033 29.8788C65.9792 29.8162 65.913 29.7654 65.8386 29.7296C65.7642 29.6938 65.6832 29.6737 65.6007 29.6706C65.5182 29.6675 65.4359 29.6815 65.3591 29.7116C65.2822 29.7418 65.2124 29.7875 65.154 29.8458Z" fill="white"/>
</svg>
