<svg width="194" height="44" viewBox="0 0 194 44" fill="none" xmlns="http://www.w3.org/2000/svg">
<path opacity="0.1" d="M185 0H9C4.02944 0 0 4.02944 0 9V35C0 39.9706 4.02944 44 9 44H185C189.971 44 194 39.9706 194 35V9C194 4.02944 189.971 0 185 0Z" fill="#474DFF"/>
<path opacity="0.5" d="M19.3828 28.5114C18.3255 28.5114 17.3842 28.3672 16.5589 28.0788C15.7337 27.7938 15.036 27.3762 14.4659 26.826C13.8958 26.2725 13.4616 25.598 13.1634 24.8026C12.8651 24.0071 12.7159 23.1023 12.7159 22.0881C12.7159 21.0871 12.8651 20.179 13.1634 19.3636C13.465 18.5483 13.9041 17.849 14.4808 17.2656C15.0575 16.679 15.7618 16.2282 16.5938 15.9134C17.429 15.5985 18.3802 15.4411 19.4474 15.4411C20.4351 15.4411 21.3168 15.5852 22.0923 15.8736C22.8712 16.1619 23.5308 16.5729 24.071 17.1065C24.6146 17.6368 25.0272 18.2682 25.3089 19.0007C25.594 19.7299 25.7348 20.5369 25.7315 21.4219C25.7348 22.0317 25.6818 22.5919 25.5724 23.1023C25.4631 23.6127 25.2907 24.0585 25.0554 24.4396C24.8234 24.8175 24.5185 25.1174 24.1406 25.3395C23.7628 25.5582 23.3054 25.6825 22.7685 25.7124C22.384 25.7422 22.0724 25.714 21.8338 25.6278C21.5952 25.5417 21.4129 25.4141 21.2869 25.245C21.1643 25.0727 21.0848 24.8722 21.0483 24.6435H20.9886C20.9091 24.8423 20.7533 25.023 20.5213 25.1854C20.2893 25.3445 20.0059 25.4687 19.6712 25.5582C19.3397 25.6444 18.9867 25.6759 18.6122 25.6527C18.2211 25.6295 17.8499 25.5384 17.4986 25.3793C17.1506 25.2202 16.8407 24.9898 16.5689 24.6882C16.3004 24.3866 16.0883 24.0137 15.9325 23.5696C15.7801 23.1255 15.7022 22.6117 15.6989 22.0284C15.7022 21.4517 15.7834 20.9496 15.9425 20.522C16.1049 20.0945 16.3187 19.7348 16.5838 19.4432C16.8523 19.1515 17.1506 18.9228 17.4787 18.7571C17.8068 18.5914 18.1366 18.4853 18.468 18.4389C18.8426 18.3826 19.1972 18.3826 19.532 18.4389C19.8667 18.4953 20.1484 18.5864 20.3771 18.7124C20.6091 18.8383 20.7533 18.9742 20.8097 19.12H20.8793V18.5632H22.4354V23.4155C22.4387 23.6442 22.4901 23.8215 22.5895 23.9474C22.6889 24.0734 22.8232 24.1364 22.9922 24.1364C23.2209 24.1364 23.4115 24.0353 23.5639 23.8331C23.7197 23.6309 23.8357 23.321 23.9119 22.9034C23.9915 22.4858 24.0312 21.9538 24.0312 21.3075C24.0312 20.6844 23.9484 20.1375 23.7827 19.6669C23.6203 19.1929 23.3916 18.7902 23.0966 18.4588C22.8049 18.1241 22.4652 17.8523 22.0774 17.6435C21.6896 17.4347 21.2687 17.2822 20.8146 17.1861C20.3639 17.09 19.8999 17.0419 19.4226 17.0419C18.5973 17.0419 17.8764 17.1679 17.2599 17.4197C16.6435 17.6683 16.1297 18.018 15.7188 18.4688C15.3078 18.9195 14.9995 19.4482 14.794 20.0547C14.5919 20.6579 14.4891 21.3158 14.4858 22.0284C14.4891 22.8139 14.5985 23.5099 14.8139 24.1165C15.0327 24.7197 15.3542 25.2268 15.7784 25.6378C16.2027 26.0488 16.7263 26.3603 17.3494 26.5724C17.9725 26.7846 18.6884 26.8906 19.4972 26.8906C19.8783 26.8906 20.2512 26.8641 20.6158 26.8111C20.9804 26.7547 21.3101 26.6884 21.6051 26.6122C21.9001 26.5327 22.1371 26.4564 22.3161 26.3835L22.8082 27.8253C22.5994 27.9446 22.3161 28.0556 21.9581 28.1584C21.6035 28.2644 21.2024 28.349 20.755 28.4119C20.3108 28.4782 19.8535 28.5114 19.3828 28.5114ZM19.1541 24.017C19.5585 24.017 19.88 23.9392 20.1186 23.7834C20.3606 23.6276 20.5329 23.3973 20.6357 23.0923C20.7417 22.7841 20.7914 22.4046 20.7848 21.9538C20.7815 21.5561 20.7301 21.2197 20.6307 20.9446C20.5346 20.6662 20.3672 20.4557 20.1286 20.3132C19.8932 20.1674 19.5651 20.0945 19.1442 20.0945C18.7763 20.0945 18.4631 20.1723 18.2045 20.3281C17.9493 20.4839 17.7538 20.7027 17.6179 20.9844C17.4853 21.2628 17.4174 21.5909 17.4141 21.9688C17.4174 22.3201 17.4737 22.6532 17.5831 22.968C17.6925 23.2796 17.8731 23.5331 18.125 23.7287C18.3769 23.9209 18.7199 24.017 19.1541 24.017ZM33.5978 16.8182H35.7505V23.4304C35.7505 24.1728 35.5732 24.8224 35.2186 25.3793C34.8672 25.9361 34.3751 26.3703 33.742 26.6818C33.109 26.9901 32.3715 27.1442 31.5297 27.1442C30.6845 27.1442 29.9454 26.9901 29.3123 26.6818C28.6793 26.3703 28.1871 25.9361 27.8358 25.3793C27.4844 24.8224 27.3088 24.1728 27.3088 23.4304V16.8182H29.4615V23.2464C29.4615 23.6342 29.546 23.9789 29.715 24.2805C29.8874 24.5821 30.1293 24.8191 30.4409 24.9915C30.7524 25.1638 31.1154 25.25 31.5297 25.25C31.9473 25.25 32.3102 25.1638 32.6184 24.9915C32.93 24.8191 33.1703 24.5821 33.3393 24.2805C33.5117 23.9789 33.5978 23.6342 33.5978 23.2464V16.8182ZM43.8356 21.5412L41.8967 21.6605C41.8635 21.4948 41.7923 21.3456 41.6829 21.2131C41.5735 21.0772 41.4293 20.9695 41.2504 20.8899C41.0747 20.8071 40.8642 20.7656 40.619 20.7656C40.2908 20.7656 40.0141 20.8352 39.7887 20.9744C39.5633 21.1103 39.4506 21.2926 39.4506 21.5213C39.4506 21.7036 39.5236 21.8577 39.6694 21.9837C39.8152 22.1096 40.0655 22.2107 40.4201 22.2869L41.8022 22.5653C42.5446 22.7178 43.0981 22.9631 43.4627 23.3011C43.8273 23.6392 44.0096 24.0833 44.0096 24.6335C44.0096 25.134 43.8621 25.5732 43.5671 25.951C43.2755 26.3288 42.8744 26.6238 42.364 26.8359C41.8569 27.0447 41.2719 27.1491 40.609 27.1491C39.5981 27.1491 38.7927 26.9387 38.1928 26.5178C37.5962 26.0935 37.2466 25.5168 37.1438 24.7876L39.2269 24.6783C39.2899 24.9865 39.4424 25.2218 39.6843 25.3842C39.9263 25.5433 40.2362 25.6229 40.614 25.6229C40.9852 25.6229 41.2835 25.5516 41.5089 25.4091C41.7376 25.2633 41.8536 25.076 41.8569 24.8473C41.8536 24.6551 41.7724 24.4976 41.6133 24.375C41.4542 24.2491 41.2089 24.1529 40.8775 24.0866L39.555 23.8232C38.8093 23.674 38.2541 23.4155 37.8896 23.0476C37.5283 22.6797 37.3477 22.2107 37.3477 21.6406C37.3477 21.1501 37.4802 20.7275 37.7454 20.3729C38.0138 20.0182 38.39 19.7448 38.8739 19.5526C39.3612 19.3603 39.9312 19.2642 40.5842 19.2642C41.5487 19.2642 42.3076 19.468 42.8612 19.8757C43.418 20.2834 43.7428 20.8385 43.8356 21.5412ZM48.8233 27.1491C48.0378 27.1491 47.3617 26.9901 46.7949 26.6719C46.2315 26.3504 45.7973 25.8963 45.4924 25.3097C45.1874 24.7197 45.035 24.022 45.035 23.2166C45.035 22.4311 45.1874 21.7417 45.4924 21.1484C45.7973 20.5552 46.2265 20.0928 46.78 19.7614C47.3368 19.4299 47.9898 19.2642 48.7388 19.2642C49.2426 19.2642 49.7116 19.3454 50.1458 19.5078C50.5833 19.6669 50.9644 19.9072 51.2892 20.2287C51.6174 20.5502 51.8726 20.9545 52.0549 21.4418C52.2372 21.9257 52.3283 22.4924 52.3283 23.142V23.7237H45.8801V22.4112H50.3347C50.3347 22.1063 50.2684 21.8362 50.1358 21.6009C50.0033 21.3655 49.8193 21.1816 49.584 21.049C49.352 20.9131 49.0819 20.8452 48.7736 20.8452C48.4521 20.8452 48.1671 20.9197 47.9185 21.0689C47.6732 21.2147 47.481 21.4119 47.3418 21.6605C47.2026 21.9058 47.1313 22.1792 47.128 22.4808V23.7287C47.128 24.1065 47.1976 24.433 47.3368 24.7081C47.4793 24.9832 47.6799 25.1953 47.9384 25.3445C48.1969 25.4936 48.5035 25.5682 48.8581 25.5682C49.0935 25.5682 49.3089 25.535 49.5044 25.4688C49.7 25.4025 49.8674 25.303 50.0066 25.1705C50.1458 25.0379 50.2518 24.8755 50.3248 24.6832L52.2836 24.8125C52.1841 25.2831 51.9803 25.6941 51.6721 26.0455C51.3671 26.3935 50.9727 26.6652 50.4888 26.8608C50.0082 27.053 49.4531 27.1491 48.8233 27.1491ZM53.7104 27V19.3636H55.7637V20.696H55.8432C55.9824 20.2221 56.2161 19.8641 56.5442 19.6222C56.8723 19.3769 57.2502 19.2543 57.6777 19.2543C57.7838 19.2543 57.8981 19.2609 58.0208 19.2741C58.1434 19.2874 58.2511 19.3056 58.3439 19.3288V21.2081C58.2445 21.1783 58.1069 21.1518 57.9313 21.1286C57.7556 21.1054 57.5949 21.0938 57.449 21.0938C57.1375 21.0938 56.8591 21.1617 56.6138 21.2976C56.3719 21.4302 56.1796 21.6158 56.0371 21.8544C55.8979 22.093 55.8283 22.3681 55.8283 22.6797V27H53.7104ZM61.5568 22.5852V27H59.4389V19.3636H61.4574V20.7109H61.5469C61.7159 20.2668 61.9993 19.9155 62.397 19.657C62.7947 19.3951 63.277 19.2642 63.8438 19.2642C64.3741 19.2642 64.8364 19.3802 65.2308 19.6122C65.6252 19.8442 65.9318 20.1757 66.1506 20.6065C66.3693 21.0341 66.4787 21.5445 66.4787 22.1378V27H64.3608V22.5156C64.3641 22.0483 64.2448 21.6837 64.0028 21.4219C63.7609 21.1567 63.4278 21.0241 63.0036 21.0241C62.7185 21.0241 62.4666 21.0855 62.2479 21.2081C62.0324 21.3307 61.8634 21.5097 61.7408 21.745C61.6214 21.977 61.5601 22.2571 61.5568 22.5852ZM70.3255 27.1442C69.8382 27.1442 69.4041 27.0597 69.0229 26.8906C68.6417 26.7183 68.3401 26.4647 68.1181 26.13C67.8993 25.7919 67.79 25.371 67.79 24.8672C67.79 24.4429 67.8678 24.0866 68.0236 23.7983C68.1794 23.5099 68.3915 23.2779 68.66 23.1023C68.9284 22.9266 69.2334 22.794 69.5748 22.7045C69.9194 22.6151 70.2807 22.5521 70.6586 22.5156C71.1027 22.4692 71.4606 22.4261 71.7324 22.3864C72.0042 22.3433 72.2014 22.2803 72.324 22.1974C72.4467 22.1146 72.508 21.992 72.508 21.8295V21.7997C72.508 21.4848 72.4086 21.2412 72.2097 21.0689C72.0141 20.8965 71.7357 20.8104 71.3745 20.8104C70.9933 20.8104 70.69 20.8949 70.4647 21.0639C70.2393 21.2296 70.0901 21.4384 70.0172 21.6903L68.0584 21.5312C68.1578 21.0672 68.3534 20.6662 68.6451 20.3281C68.9367 19.9867 69.3129 19.7249 69.7736 19.5426C70.2376 19.357 70.7746 19.2642 71.3844 19.2642C71.8087 19.2642 72.2147 19.3139 72.6025 19.4134C72.9935 19.5128 73.3399 19.6669 73.6415 19.8757C73.9464 20.0845 74.1867 20.353 74.3624 20.6811C74.5381 21.0059 74.6259 21.3954 74.6259 21.8494V27H72.6174V25.9411H72.5577C72.4351 26.1797 72.271 26.3902 72.0655 26.5724C71.86 26.7514 71.6131 26.8923 71.3248 26.995C71.0364 27.0945 70.7033 27.1442 70.3255 27.1442ZM70.932 25.6825C71.2435 25.6825 71.5186 25.6212 71.7573 25.4986C71.9959 25.3726 72.1832 25.2036 72.3191 24.9915C72.455 24.7794 72.5229 24.5391 72.5229 24.2706V23.4602C72.4566 23.5033 72.3655 23.5431 72.2495 23.5795C72.1368 23.6127 72.0092 23.6442 71.8667 23.674C71.7241 23.7005 71.5816 23.7254 71.4391 23.7486C71.2966 23.7685 71.1673 23.7867 71.0513 23.8033C70.8027 23.8397 70.5856 23.8977 70.4 23.9773C70.2144 24.0568 70.0703 24.1645 69.9675 24.3004C69.8648 24.433 69.8134 24.5987 69.8134 24.7976C69.8134 25.0859 69.9178 25.3063 70.1266 25.4588C70.3387 25.608 70.6072 25.6825 70.932 25.6825ZM76.269 27V19.3636H78.2875V20.7109H78.377C78.536 20.2635 78.8012 19.9105 79.1724 19.652C79.5436 19.3935 79.9877 19.2642 80.5048 19.2642C81.0285 19.2642 81.4743 19.3951 81.8422 19.657C82.2101 19.9155 82.4553 20.2668 82.5779 20.7109H82.6575C82.8133 20.2734 83.095 19.9238 83.5027 19.6619C83.9136 19.3968 84.3992 19.2642 84.9593 19.2642C85.6719 19.2642 86.2503 19.4912 86.6944 19.9453C87.1419 20.3961 87.3656 21.0357 87.3656 21.8643V27H85.2527V22.282C85.2527 21.8577 85.14 21.5395 84.9146 21.3274C84.6892 21.1153 84.4075 21.0092 84.0694 21.0092C83.685 21.0092 83.385 21.1319 83.1696 21.3771C82.9541 21.6191 82.8464 21.9389 82.8464 22.3366V27H80.7931V22.2372C80.7931 21.8627 80.6854 21.5644 80.47 21.3423C80.2579 21.1203 79.9778 21.0092 79.6298 21.0092C79.3945 21.0092 79.1824 21.0689 78.9934 21.1882C78.8078 21.3042 78.6603 21.4683 78.551 21.6804C78.4416 21.8892 78.3869 22.1345 78.3869 22.4162V27H76.269ZM92.5186 27.1491C91.7331 27.1491 91.057 26.9901 90.4902 26.6719C89.9268 26.3504 89.4926 25.8963 89.1877 25.3097C88.8828 24.7197 88.7303 24.022 88.7303 23.2166C88.7303 22.4311 88.8828 21.7417 89.1877 21.1484C89.4926 20.5552 89.9218 20.0928 90.4753 19.7614C91.0321 19.4299 91.6851 19.2642 92.4341 19.2642C92.9379 19.2642 93.4069 19.3454 93.8411 19.5078C94.2786 19.6669 94.6597 19.9072 94.9846 20.2287C95.3127 20.5502 95.5679 20.9545 95.7502 21.4418C95.9325 21.9257 96.0236 22.4924 96.0236 23.142V23.7237H89.5755V22.4112H94.03C94.03 22.1063 93.9637 21.8362 93.8311 21.6009C93.6986 21.3655 93.5146 21.1816 93.2793 21.049C93.0473 20.9131 92.7772 20.8452 92.4689 20.8452C92.1474 20.8452 91.8624 20.9197 91.6138 21.0689C91.3685 21.2147 91.1763 21.4119 91.0371 21.6605C90.8979 21.9058 90.8266 22.1792 90.8233 22.4808V23.7287C90.8233 24.1065 90.8929 24.433 91.0321 24.7081C91.1747 24.9832 91.3752 25.1953 91.6337 25.3445C91.8922 25.4936 92.1988 25.5682 92.5534 25.5682C92.7888 25.5682 93.0042 25.535 93.1998 25.4688C93.3953 25.4025 93.5627 25.303 93.7019 25.1705C93.8411 25.0379 93.9471 24.8755 94.0201 24.6832L95.9789 24.8125C95.8794 25.2831 95.6756 25.6941 95.3674 26.0455C95.0624 26.3935 94.668 26.6652 94.1841 26.8608C93.7035 27.053 93.1484 27.1491 92.5186 27.1491Z" fill="#474DFF"/>
</svg>
